<svg xmlns="http://www.w3.org/2000/svg" xmlns:xlink="http://www.w3.org/1999/xlink" width="1265" zoomAndPan="magnify" viewBox="0 0 948.75 326.999992" height="436" preserveAspectRatio="xMidYMid meet" version="1.0"><defs><g/></defs><g fill="#18b7bd" fill-opacity="1"><g transform="translate(168.789629, 275.777579)"><g><path d="M 11.667969 -24.636719 C 11.667969 -16.855469 14.480469 -10.371094 19.449219 -5.617188 C 24.417969 -0.863281 31.117188 2.160156 38.898438 2.160156 C 46.460938 2.160156 53.160156 -0.863281 58.347656 -5.617188 C 63.316406 -10.371094 66.34375 -16.855469 66.34375 -24.636719 C 66.34375 -32.199219 63.316406 -39.113281 58.347656 -43.867188 C 53.160156 -48.621094 46.460938 -51.433594 38.898438 -51.433594 C 31.117188 -51.433594 24.417969 -48.621094 19.449219 -43.867188 C 14.480469 -39.113281 11.667969 -32.199219 11.667969 -24.636719 Z M 11.667969 -24.636719 "/></g></g></g><g fill="#18b7bd" fill-opacity="1"><g transform="translate(246.5861, 275.777579)"><g><path d="M 13.183594 -104.59375 C 13.183594 -75.203125 25.285156 -48.40625 44.734375 -29.171875 C 64.183594 -9.941406 90.546875 2.160156 119.9375 2.160156 C 149.324219 2.160156 175.90625 -9.941406 195.355469 -29.171875 C 214.804688 -48.40625 226.6875 -75.203125 226.6875 -104.59375 C 226.6875 -133.980469 214.804688 -160.5625 195.355469 -179.796875 C 175.90625 -199.027344 149.324219 -211.128906 119.9375 -211.128906 C 90.546875 -211.128906 64.183594 -199.027344 44.734375 -179.796875 C 25.285156 -160.5625 13.183594 -133.980469 13.183594 -104.59375 Z M 64.613281 -104.59375 C 64.613281 -120.152344 70.664062 -134.628906 80.605469 -145.003906 C 90.546875 -155.375 104.375 -161.859375 119.9375 -161.859375 C 135.496094 -161.859375 149.324219 -155.375 159.265625 -145.003906 C 169.207031 -134.628906 175.257812 -120.152344 175.257812 -104.59375 C 175.257812 -88.816406 169.207031 -74.339844 159.265625 -63.964844 C 149.324219 -53.59375 135.496094 -47.109375 119.9375 -47.109375 C 104.375 -47.109375 90.546875 -53.59375 80.605469 -63.964844 C 70.664062 -74.339844 64.613281 -88.816406 64.613281 -104.59375 Z M 64.613281 -104.59375 "/></g></g></g><g fill="#18b7bd" fill-opacity="1"><g transform="translate(486.458376, 275.777579)"><g><path d="M 211.128906 -179.796875 C 193.84375 -198.8125 169.421875 -210.914062 140.03125 -210.914062 C 124.691406 -210.914062 108.914062 -206.59375 94.4375 -199.675781 C 82.550781 -193.84375 71.527344 -186.0625 62.667969 -176.984375 L 60.507812 -186.0625 C 56.835938 -204.863281 48.621094 -211.128906 38.035156 -211.128906 C 28.742188 -211.128906 24.203125 -206.59375 24.203125 -197.300781 L 24.203125 -23.339844 C 24.203125 -16.207031 27.011719 -9.722656 31.550781 -5.1875 C 36.089844 -0.648438 42.570312 2.160156 49.703125 2.160156 C 56.617188 2.160156 63.101562 -0.648438 67.640625 -5.1875 C 72.175781 -9.722656 75.203125 -16.207031 75.203125 -23.339844 L 75.203125 -103.945312 C 75.203125 -119.289062 82.117188 -133.765625 92.921875 -144.355469 C 103.726562 -154.726562 118.207031 -161.644531 133.550781 -161.644531 C 149.109375 -161.644531 162.292969 -155.160156 171.800781 -144.789062 C 181.308594 -134.414062 186.925781 -119.9375 186.925781 -104.375 L 186.925781 -23.339844 C 186.925781 -16.421875 189.953125 -9.941406 194.492188 -5.402344 C 199.027344 -0.863281 205.511719 2.160156 212.644531 2.160156 C 219.773438 2.160156 226.257812 -1.082031 230.796875 -5.835938 C 235.332031 -10.589844 237.925781 -16.640625 237.925781 -23.339844 L 237.925781 -104.59375 C 237.925781 -133.980469 228.203125 -160.5625 211.128906 -179.796875 Z M 211.128906 -179.796875 "/></g></g></g></svg>